<?xml version="1.0" encoding="UTF-8" standalone="no"?>
<svg
   width="940.91412"
   height="1016.5355"
   viewBox="0 0 940.91412 1016.5355"
   fill="none"
   version="1.1"
   id="svg17"
   xmlns="http://www.w3.org/2000/svg"
   xmlns:svg="http://www.w3.org/2000/svg">
  <g
     id="g2464"
     style="display:none">
    <path
       opacity="0.3"
       d="M 180.038,75 H 564.175 L 940,836.1 180.038,1032 0,373.344 Z"
       fill="#cd9e56"
       id="path4"
       style="fill:#cccccc"
       clip-path="url(#clipPath2443)" />
    <path
       opacity="0.3"
       d="M 162.559,103.9654 H 509.401 L 848.738,791.172 162.559,968.053 0,373.344 Z"
       fill="#cd9e56"
       id="path6"
       style="display:inline;fill:#4d4d4d"
       clip-path="url(#clipPath2437)" />
  </g>
  <g
     id="g2474"
     transform="translate(0.91413433,-15.762475)">
    <path
       d="M 174.607,84.432795 455.22,132.6171 758.464,746.731 145.26845,904.89056 5.7785274e-6,373.12567 Z"
       fill="#cd9e56"
       id="path2459"
       clip-path="url(#clipPath2431)"
       style="display:inline;opacity:0.3;fill:#800080"
       transform="matrix(1.2393469,0,0,1.2386226,-7.1616e-6,-88.817893)" />
    <path
       d="M 174.607,84.432795 455.42369,131.20871 758.26031,746.44222 145.88934,904.79797 0,373.344 Z"
       fill="#cd9e56"
       id="path2455"
       clip-path="url(#clipPath2431)"
       style="display:inline;opacity:0.3;fill:#00ffff"
       transform="matrix(1.1205283,0,0,1.116985,-0.91413433,-42.59276)" />
    <path
       d="M 174.607,84.432795 455.22,132.6171 758.464,746.731 145.269,904.798 0,373.344 Z"
       fill="#cd9e56"
       id="path8"
       clip-path="url(#clipPath2431)"
       style="display:inline" />
    <path
       d="m 144,904.5 679.5,134 h -647 z"
       fill="#cd9e56"
       id="path2"
       clip-path="url(#clipPath2449)"
       transform="translate(1.269,0.298)"
       style="display:inline" />
  </g>
  <defs
     id="defs15">
    <clipPath
       clipPathUnits="userSpaceOnUse"
       id="clipPath2425">
      <g
         id="g2429">
        <rect
           width="940"
           height="957"
           fill="#ffffff"
           id="rect2427"
           x="0"
           y="75" />
      </g>
    </clipPath>
    <clipPath
       clipPathUnits="userSpaceOnUse"
       id="clipPath2431">
      <g
         id="g2435">
        <rect
           width="940"
           height="957"
           fill="#ffffff"
           id="rect2433"
           x="0"
           y="75" />
      </g>
    </clipPath>
    <clipPath
       clipPathUnits="userSpaceOnUse"
       id="clipPath2437">
      <g
         id="g2441">
        <rect
           width="940"
           height="957"
           fill="#ffffff"
           id="rect2439"
           x="0"
           y="75" />
      </g>
    </clipPath>
    <clipPath
       clipPathUnits="userSpaceOnUse"
       id="clipPath2443">
      <g
         id="g2447">
        <rect
           width="940"
           height="957"
           fill="#ffffff"
           id="rect2445"
           x="0"
           y="75" />
      </g>
    </clipPath>
    <clipPath
       clipPathUnits="userSpaceOnUse"
       id="clipPath2449">
      <g
         id="g2453">
        <rect
           width="940"
           height="957"
           fill="#ffffff"
           id="rect2451"
           x="0"
           y="75" />
      </g>
    </clipPath>
  </defs>
</svg>
