<?xml version="1.0" encoding="UTF-8" standalone="no"?>
<!-- Created with Inkscape (http://www.inkscape.org/) -->

<svg
   width="9.260417mm"
   height="9.260417mm"
   viewBox="0 0 9.2604169 9.2604169"
   version="1.1"
   id="svg5"
   xml:space="preserve"
   xmlns="http://www.w3.org/2000/svg"
   xmlns:svg="http://www.w3.org/2000/svg"><defs
     id="defs2"><pattern
       id="EMFhbasepattern"
       patternUnits="userSpaceOnUse"
       width="6"
       height="6"
       x="0"
       y="0" /><pattern
       id="EMFhbasepattern-5"
       patternUnits="userSpaceOnUse"
       width="6"
       height="6"
       x="0"
       y="0" /></defs><g
     id="layer1"><path
       style="fill:#000000;stroke-width:0.0171936"
       d="M 1.8913247,7.830001 C 1.2626565,7.0435078 0.56109461,6.1660312 0.33229824,5.8800543 -0.75324909,4.5170361 1.1335747,6.5644766 1.5404877,7.0014886 2.2589093,7.8098769 2.9342097,8.61485 3.045761,8.7146781 3.4669433,7.8177743 5.1793264,4.4790252 7.3748319,1.8080874 8.8313289,0.14365827 9.4197741,-0.14292245 9.2238854,0.05430206 9.027996,0.25152653 8.8316873,0.48019638 8.6081584,0.72426688 8.3846295,0.96833733 8.0786742,1.3125777 7.9282589,1.4892453 7.7778429,1.665913 7.5576341,1.9309144 7.438905,2.0781375 7.3201745,2.2253604 7.1187677,2.4823316 6.9913318,2.6491844 6.8638961,2.8160371 6.6637137,3.0848345 6.5464818,3.2465115 6.4292505,3.408189 6.2492884,3.6625934 6.146566,3.8118549 6.0438441,3.9611169 5.8562421,4.2423985 5.7296723,4.436925 5.6031029,4.631452 5.4104567,4.9351569 5.30157,5.1118243 5.1926834,5.2884923 5.0064043,5.6016757 4.8876162,5.8077877 4.768828,6.0139002 4.6116061,6.2909469 4.5382339,6.4234481 4.4648619,6.5559487 4.3158047,6.8329955 4.206996,7.0391081 4.0981876,7.2452201 3.9155483,7.6025705 3.8011312,7.8332199 3.6867138,8.0638694 3.4861663,8.4794397 3.3554698,8.7567105 3.1385046,9.2169979 3.1142099,9.2608012 3.0760988,9.2604142 3.0415188,9.2600605 2.8382642,9.0146684 1.8913247,7.830001 Z m 2.460006,-1.1656428 c 0,-0.0049 -0.00373,-0.00892 -0.00828,-0.00892 -0.00455,0 -0.00828,0.00402 -0.00828,0.00892 0,0.0049 0.00373,0.00892 0.00828,0.00892 0.00455,0 0.00828,-0.00402 0.00828,-0.00892 z"
       id="path3056" /></g></svg>
