<?xml version="1.0" encoding="UTF-8" standalone="no"?>
<!-- Created with Inkscape (http://www.inkscape.org/) -->

<svg
   width="163.05479mm"
   height="54.565937mm"
   viewBox="0 0 163.05479 54.565937"
   version="1.1"
   id="svg1"
   xmlns="http://www.w3.org/2000/svg"
   xmlns:svg="http://www.w3.org/2000/svg">
  <defs
     id="defs1" />
  <g
     id="layer1">
    <path
       id="path17"
       style="fill:none;stroke:#000000;stroke-width:0.3;stroke-dasharray:none"
       d="m 143.22207,23.290653 c 2.43903,-1.01457 4.82544,-2.14446 7.195,-3.31067 2.05308,-1.08698 1.06554,-0.53546 2.96638,-1.64785 0,0 -2.89142,-1.868711 -2.89142,-1.868711 v 0 c -1.81726,1.144426 -0.86714,0.580202 -2.85572,1.683611 -0.56927,0.27732 -1.13165,0.56929 -1.70783,0.83195 -1.22612,0.55893 -2.09824,0.896 -3.35577,1.33172 -0.55519,0.19237 -1.4967,0.49743 -2.11712,0.63398 -0.14734,0.0324 -0.29919,0.039 -0.44878,0.0585 z M 134.2315,11.046819 c 0.1604,-0.01162 0.74045,-0.05292 0.82268,-0.06304 0.3036,-0.03736 0.6044,-0.09537 0.90779,-0.13439 0.36483,-0.04692 0.73157,-0.0779 1.09657,-0.123415 1.13025,-0.140925 1.55609,-0.214313 2.69663,-0.388578 1.72466,-0.261784 3.4277,-0.6428554 5.14104,-0.9657614 0.19784,-0.03728 2.11939,-0.371173 2.33353,-0.408458 0.34715,-0.05961 0.6943,-0.119208 1.04145,-0.178811 0,0 -2.97884,-2.0816747 -2.97884,-2.0816747 v 0 c -0.33475,0.06719 -0.6695,0.13439 -1.00424,0.201583 -0.61031,0.111416 -1.71446,0.311047 -2.31816,0.429236 -1.69243,0.331333 -3.37168,0.734005 -5.07916,0.984904 -1.93766,0.263612 -3.90146,0.5112037 -5.86052,0.4025767 z m -7.34022,13.483814 c -0.48634,0.24167 -0.96658,0.49524 -1.45517,0.73243 -0.18581,0.0902 -0.79653,0.37138 -0.98207,0.47951 -0.15636,0.0911 -0.30109,0.20087 -0.45164,0.30131 -0.88206,0.57687 -1.57316,1.37285 -2.31548,2.1074 -0.20406,0.20193 -0.41442,0.39738 -0.62163,0.59607 -1.02625,0.93937 -2.16187,1.74459 -3.33584,2.48623 -0.43094,0.23946 -0.84261,0.58107 -1.3376,0.68578 -0.10697,0.0226 -0.21686,0.0281 -0.32529,0.0421 -1.64499,0.0925 -3.29453,0.0542 -4.94061,0.0127 -1.07691,-0.028 -2.16737,-0.0698 -3.23762,0.0923 -0.20217,0.0306 -0.40121,0.0792 -0.60182,0.11876 -0.9219,0.22799 -1.85037,0.42588 -2.7725,0.65272 0,0 3.18261,2.18434 3.18261,2.18434 v 0 c 0.88376,-0.27043 1.78039,-0.50118 2.6906,-0.66438 1.23713,-0.18337 2.48357,-0.23247 3.7338,-0.20163 1.7046,0.001 3.40954,0.0673 5.11337,0.0264 0.13647,-0.0275 0.27579,-0.0435 0.40942,-0.0826 0.0794,-0.0232 0.15163,-0.0664 0.22578,-0.10311 0.39041,-0.19323 0.75309,-0.43689 1.10412,-0.69347 1.10741,-0.83484 2.18639,-1.70775 3.23532,-2.615 0.97529,-0.88907 1.91469,-1.82998 3.00366,-2.5827 0.91494,-0.57193 1.9064,-1.03272 2.91349,-1.41634 z m 19.9006,8.51171 c 1.395,-0.0477 2.71657,-0.513 4.03019,-0.94025 1.78884,-0.60995 3.6035,-1.14352 5.41988,-1.66492 0,0 -2.92646,-1.99644 -2.92646,-1.99644 v 0 c -1.80261,0.58476 -3.61479,1.14032 -5.44187,1.64418 -1.3958,0.36068 -2.81776,0.74497 -4.27426,0.63793 z m -62.379162,-1.1829 c 1.30898,-0.12006 2.60163,-0.35987 3.89678,-0.57772 1.32622,-0.22888 2.62261,-0.59557 3.94722,-0.83218 0.5867,-0.12567 1.16505,-0.0258 1.7366,0.11858 0.70178,0.14029 1.36678,0.39629 2.03609,0.64157 0.37725,0.15959 0.19323,0.0788 0.5523,0.24191 0,0 -3.05878,-2.4174 -3.05878,-2.4174 v 0 c -0.3593,-0.14478 -0.17579,-0.074 -0.55075,-0.21186 -0.67879,-0.24147 -1.36527,-0.46151 -2.07254,-0.60509 -0.60911,-0.1132 -1.20704,-0.15719 -1.80864,0.033 -1.26253,0.31921 -2.50656,0.72396 -3.79847,0.91357 -1.35216,0.2162 -2.70959,0.41283 -4.082569,0.40911 z m 10.78644,-17.817477 c 1.10153,1.602251 0.93893,1.44454 4.33358,2.572922 0.3571,0.1187 0.728542,-0.189322 1.089792,-0.29473 0.51197,-0.149386 1.01967,-0.313031 1.5295,-0.469548 2.38978,-0.79588 4.79512,-1.550082 7.26193,-2.071992 1.7987,-0.380558 2.19295,-0.407172 4.01383,-0.670126 1.74457,-0.186597 1.84245,-0.215164 3.51363,-0.329022 0.88232,-0.06011 1.59435,-0.113356 2.46969,-0.05259 0.85874,0.05961 1.16548,0.158088 1.99466,0.340193 0.82398,0.224176 1.64357,0.490368 2.42536,0.837089 0.20654,0.0916 0.40729,0.195961 0.60708,0.301466 0.18724,0.09888 0.73718,0.417058 0.55363,0.311484 -0.90858,-0.52259 -1.81916,-1.041697 -2.72874,-1.562548 0.82064,0.487522 1.59296,1.049526 2.39249,1.569374 1.32901,0.829667 2.69955,1.585362 4.06547,2.356075 0.21438,0.120967 0.47351,0.167367 0.70124,0.259103 0.0889,0.01431 0.17701,0.03439 0.26662,0.04296 0.20583,0.01968 0.75462,0.029 0.92289,0.03221 0.69045,0.01315 1.38104,0.02212 2.07154,0.03237 0.89611,-0.007 1.79425,-0.01225 2.67729,-0.184812 0.19717,-0.03853 0.39573,-0.07604 0.58635,-0.139488 0.18637,-0.06203 0.36013,-0.156983 0.54019,-0.235474 0.16435,-0.09775 0.32871,-0.195493 0.49306,-0.29324 0,0 -3.19155,-2.074331 -3.19155,-2.074331 v 0 c -0.15412,0.08452 -0.30824,0.169048 -0.46236,0.253571 -0.16621,0.06318 -0.32821,0.138827 -0.49865,0.189548 -1.02545,0.305165 -2.12011,0.248391 -3.17547,0.274383 -0.70173,-0.01254 -1.40434,-0.02066 -2.10409,-0.08109 -0.3434,-0.02965 -0.63271,-0.06018 -0.96114,-0.147241 -0.0861,-0.02281 -0.168,-0.05905 -0.252,-0.08857 -0.19331,-0.06906 -0.23644,-0.07932 -0.42796,-0.170214 -0.0768,-0.03644 -0.30008,-0.15947 -0.22675,-0.116518 5.49289,3.217582 3.75067,2.190287 2.58475,1.487845 -0.84723,-0.493805 -1.6255,-1.095462 -2.46439,-1.603917 -1.4315,-0.827498 -2.81533,-1.748375 -4.3098,-2.455836 -0.95362,-0.45143 -1.97362,-0.753624 -2.99692,-0.998596 -0.84061,-0.150659 -1.1377,-0.237344 -2.0032,-0.254402 -0.85952,-0.01693 -1.4889,0.07709 -2.35038,0.178255 -1.50209,0.176392 -1.82642,0.225383 -3.39475,0.43235 -2.0152,0.300686 -3.99578,0.615548 -5.97409,1.1152 -1.93985,0.48994 -1.70148,0.49606 -3.61197,1.062152 -0.6061,0.179591 -1.217112,0.342201 -1.825662,0.513305 -0.55144,0.116355 -1.0977,0.260686 -1.65431,0.349064 -0.39298,0.0624 -1.43392,-0.211394 -1.18932,0.10245 0.67182,0.861991 1.78924,1.256517 2.70878,1.847119 0.0896,0.05755 -0.16127,-0.177596 -0.29047,-0.400558 -0.0326,-0.05628 -0.0536,-0.118543 -0.0804,-0.177818 z M 62.473435,44.516023 c 0.136134,-0.0636 0.268545,-0.13586 0.408403,-0.19077 1.308291,-0.51368 2.705799,-0.83824 4.074557,-1.1315 1.410441,-0.30218 3.238016,-0.61938 4.652037,-0.87434 3.190779,-0.53319 6.3951,-0.97847 9.589727,-1.48637 1.347391,-0.21182 2.709119,-0.32492 4.051279,-0.56885 1.28261,-0.19619 2.55518,-0.44874 3.83126,-0.68468 1.13012,-0.19634 2.26976,-0.32719 3.41054,-0.4417 0,0 -3.07105,-2.174 -3.07105,-2.174 v 0 c -1.11273,0.16482 -2.22141,0.35565 -3.33567,0.51053 -0.59374,0.0806 -1.18917,0.1488 -1.78232,0.23365 -0.72458,0.10366 -1.43722,0.27968 -2.163374,0.37515 -1.30343,0.20556 -2.606749,0.40953 -3.89986,0.67553 -3.074189,0.56299 -6.13197,1.21361 -9.210381,1.75466 -3.455477,0.60207 -1.319462,0.23535 -4.753788,0.81214 -0.73837,0.12401 -2.851136,0.4708 -3.709685,0.64797 -0.623663,0.1287 -0.81398,0.19983 -1.352048,0.36981 z M 48.077311,23.595633 c 0.545129,0.34866 1.149998,0.55285 1.766398,0.7355 1.57126,0.0564 3.139355,0.16875 4.711144,0.21662 0.892061,0.0516 1.779466,0.0374 2.667609,-0.0558 0.616971,-0.0498 1.227172,-0.14993 1.841746,-0.21858 0.749379,-0.11866 1.490096,-0.2823 2.238986,-0.40601 0.925129,-0.14081 1.844704,-0.31833 2.772172,-0.44362 0.77293,-0.14573 1.53984,-0.31959 2.265902,-0.62615 0.635132,-0.33343 1.244404,-0.70748 1.795973,-1.16623 0.334338,-0.24452 0.593955,-0.57529 0.903118,-0.84612 0.159428,-0.13966 0.355984,-0.25524 0.53339,-0.36844 0.56784,-0.30659 1.190495,-0.43027 1.815269,-0.5528 0.521261,-0.0988 1.052145,-0.12083 1.581279,-0.1298 0.392452,0.003 0.784847,-0.002 1.177288,-0.002 0.258757,0.0622 0.535294,0.0427 0.794226,0.0977 0.13943,0.0296 0.272828,0.0831 0.410975,0.11817 1.208066,0.564 2.918505,1.64685 -2.869637,-1.66052 -0.04284,-0.0245 0.08765,0.046 0.127865,0.0745 0.05632,0.04 0.15054,0.13501 0.200531,0.18354 1.247127,1.26494 2.548837,2.11722 4.151532,2.09585 0.331864,0.0763 0.669494,0.0961 1.008256,0.10902 0.262503,0.005 0.131476,0.002 0.393078,0.008 0,0 -3.174251,-2.32003 -3.174251,-2.32003 v 0 c -0.257511,-0.01 -0.128196,-0.003 -0.387943,-0.0197 -0.340244,-0.0288 -0.676153,-0.0942 -1.017249,-0.1129 -0.132514,-0.0168 -0.261591,-0.032 -0.38435,-0.0888 -0.03308,-0.0153 -0.127103,-0.0714 -0.09554,-0.0532 3.314147,1.91342 4.472718,2.34759 3.176371,1.85412 -0.115367,-0.0744 -0.117301,-0.0661 -0.215734,-0.17195 -0.0393,-0.0423 -0.06157,-0.10326 -0.111172,-0.1328 -1.465374,-0.87274 -2.442181,-1.78403 -3.916421,-2.143239 -0.413089,-0.09607 -0.839123,-0.137223 -1.263041,-0.143079 -0.394783,-0.0013 -0.789774,-0.01159 -1.184003,0.01723 -0.536215,0.03302 -1.073944,0.07436 -1.599091,0.194106 -0.65858,0.137412 -1.296972,0.349882 -1.883328,0.686382 -0.25227,0.17129 -0.350322,0.22725 -0.582171,0.42745 -0.302543,0.26123 -0.56401,0.56929 -0.878118,0.81809 -0.533082,0.42373 -1.108588,0.79758 -1.73674,1.06568 -0.70571,0.26969 -1.433553,0.4676 -2.183043,0.57363 -0.922938,0.15387 -1.844842,0.31332 -2.769957,0.45371 -0.757317,0.13143 -1.514923,0.25964 -2.277468,0.35732 -0.600956,0.0805 -1.201613,0.16382 -1.804013,0.23282 -0.855335,0.0744 -1.714442,0.0679 -2.572436,0.0693 -1.266727,-0.0152 -2.646013,-0.008 -3.894402,-0.19125 -0.275965,-0.0405 -0.546743,-0.11076 -0.820113,-0.16615 -0.629843,-0.21828 -1.227328,-0.49533 -1.78885,-0.85729 z m -27.717178,2.59215 c 0,0 3.059465,3.14695 5.307031,9.62244 1.861154,5.36219 -0.08198,12.14233 -0.08198,12.14233 M 8.4119257,34.014383 c 0,0 1.4099,2.281 1.7166063,3.64581 0.306706,1.36482 -0.02476,4.82438 -0.02476,4.82438 m 22.790496,-24.61024 v 0 c 0,0 7.548767,8.00822 9.144011,14.67446 2.87062,11.99583 1.708607,21.86268 1.708607,21.86268 M 152.63483,0.14838293 v 0 c 0,0 5.73075,6.27954397 8.60138,12.50394907 2.87062,6.224401 1.16597,21.139171 1.16597,21.139171 v 0 m 0,0 L 43.746886,54.411473 0.3364117,39.217813 v 0 L 32.894268,17.874333 152.63483,0.14838293" />
  </g>
</svg>
