<?xml version="1.0" encoding="UTF-8" standalone="no"?>
<svg
   version="1.1"
   viewBox="0 0 512 384"
   id="svg4"
   width="512"
   height="384"
   xmlns="http://www.w3.org/2000/svg"
   xmlns:svg="http://www.w3.org/2000/svg">
  <defs
     id="defs8" />
  <path
     d="M 405.333,149.874 V 42.667 C 405.333,19.136 386.198,0 362.666,0 h -320 C 19.135,0 0,19.135 0,42.667 V 256 c 0,23.531 19.135,42.667 42.667,42.667 H 281.882 C 295.858,347.84 341.073,384 394.667,384 c 20.625,0 40.906,-5.427 58.677,-15.708 5.094,-2.948 6.844,-9.469 3.885,-14.573 -2.948,-5.104 -9.479,-6.865 -14.573,-3.885 -14.521,8.396 -31.115,12.833 -47.99,12.833 -52.938,0 -96,-43.063 -96,-96 0,-52.937 43.063,-96 96,-96 52.937,0 96,43.063 96,96 v 10.667 c 0,11.76 -9.573,21.333 -21.333,21.333 -11.76,0 -21.333,-9.573 -21.333,-21.333 V 234.667 A 10.66,10.66 0 0 0 437.333,224 c -2.869,0 -5.447,1.161 -7.362,3 -9.428,-8.401 -21.714,-13.667 -35.305,-13.667 -29.406,0 -53.333,23.927 -53.333,53.333 0,29.406 23.927,53.334 53.334,53.334 15.896,0 30.03,-7.131 39.81,-18.202 C 442.204,312.775 454.917,320 469.334,320 492.865,320 512,300.865 512,277.333 V 266.666 C 512,205.569 465.044,155.288 405.333,149.874 Z M 42.667,21.333 h 320 c 0.444,0 0.816,0.227 1.254,0.254 L 211.438,146.75 c -5.427,3.417 -13.292,2.708 -16.823,0.542 L 41.426,21.585 c 0.433,-0.026 0.801,-0.252 1.241,-0.252 z M 384,149.874 c -59.711,5.414 -106.667,55.695 -106.667,116.793 0,3.6 0.221,7.148 0.54,10.667 H 42.667 c -11.76,0 -21.333,-9.573 -21.333,-21.333 V 42.667 c 0,-3.021 0.667,-5.874 1.805,-8.48 L 182.022,164.48 c 6.208,4.052 13.344,6.188 20.646,6.188 7.021,0 13.885,-1.979 19.927,-5.729 a 10.367,10.367 0 0 0 1.719,-1.156 L 382.194,34.185 c 1.139,2.608 1.807,5.461 1.807,8.483 v 107.206 z m 10.667,148.793 c -17.646,0 -32,-14.354 -32,-32 0,-17.646 14.354,-32 32,-32 17.646,0 32,14.354 32,32 0,17.646 -14.354,32 -32,32 z"
     id="path2" />
</svg>
