<?xml version="1.0" encoding="UTF-8" standalone="no"?>
<svg
   id="Layer_1"
   height="512"
   viewBox="0 0 24 24"
   width="512"
   data-name="Layer 1"
   version="1.1"
   xmlns="http://www.w3.org/2000/svg"
   xmlns:svg="http://www.w3.org/2000/svg">
  <defs
     id="defs15" />
  <path
     d="m9 24h-8a1 1 0 0 1 0-2h8a1 1 0 0 1 0 2z"
     id="path2" />
  <path
     d="m7 20h-6a1 1 0 0 1 0-2h6a1 1 0 0 1 0 2z"
     id="path4" />
  <path
     d="m5 16h-4a1 1 0 0 1 0-2h4a1 1 0 0 1 0 2z"
     id="path6" />
  <path
     d="m13 23.955a1 1 0 0 1 -.089-2 10 10 0 1 0 -10.87-10.865 1 1 0 0 1 -1.992-.18 12 12 0 0 1 23.951 1.09 11.934 11.934 0 0 1 -10.91 11.951c-.03.003-.061.004-.09.004z"
     id="path8"
     style="stroke-width:0;stroke-dasharray:none;stroke:none;stroke-opacity:1;fill:#000000;fill-opacity:1" />
  <path
     d="m12 6a1 1 0 0 0 -1 1v5a1 1 0 0 0 .293.707l3 3a1 1 0 0 0 1.414-1.414l-2.707-2.707v-4.586a1 1 0 0 0 -1-1z"
     id="path10" />
</svg>
