<?xml version="1.0" encoding="UTF-8"?>
<!DOCTYPE svg PUBLIC "-//W3C//DTD SVG 1.1//EN" "http://www.w3.org/Graphics/SVG/1.1/DTD/svg11.dtd">
<svg xmlns="http://www.w3.org/2000/svg" version="1.1" width="814px" height="970px" style="shape-rendering:geometricPrecision; text-rendering:geometricPrecision; image-rendering:optimizeQuality; fill-rule:evenodd; clip-rule:evenodd" xmlns:xlink="http://www.w3.org/1999/xlink">
<g><path style="opacity:0.988" fill="#b1b2b2" d="M -0.5,-0.5 C 270.833,-0.5 542.167,-0.5 813.5,-0.5C 813.5,322.833 813.5,646.167 813.5,969.5C 542.167,969.5 270.833,969.5 -0.5,969.5C -0.5,646.167 -0.5,322.833 -0.5,-0.5 Z M 183.5,41.5 C 203.887,39.5652 223.554,42.3985 242.5,50C 248.786,52.7246 254.286,56.5579 259,61.5C 266.385,70.5505 273.385,79.8838 280,89.5C 297.306,107.714 318.473,115.214 343.5,112C 348.133,117.635 353.133,122.968 358.5,128C 348.599,128.517 338.932,127.184 329.5,124C 312.736,116.784 296.403,108.784 280.5,100C 271.962,96.7591 263.129,94.9257 254,94.5C 240.589,95.7156 227.422,98.2156 214.5,102C 205.587,105.959 197.92,111.626 191.5,119C 189.61,120.112 187.61,120.946 185.5,121.5C 180.562,120.354 175.895,118.521 171.5,116C 166.167,112.667 160.833,109.333 155.5,106C 148.719,103.537 141.719,102.37 134.5,102.5C 133.202,85.3589 137.368,69.6922 147,55.5C 149.205,52.9598 151.705,50.7932 154.5,49C 164.053,45.5302 173.719,43.0302 183.5,41.5 Z M 228.5,104.5 C 252.432,102.933 275.432,106.766 297.5,116C 301.633,119.131 305.466,122.631 309,126.5C 327.166,150.172 338.166,176.838 342,206.5C 336.872,201.203 331.038,196.87 324.5,193.5C 323.369,195.074 323.202,196.741 324,198.5C 330.921,210.674 337.588,223.007 344,235.5C 349.925,255.99 359.259,274.657 372,291.5C 378.531,298.365 385.364,304.865 392.5,311C 382.8,309.316 373.8,305.649 365.5,300C 351.03,288.201 339.53,274.034 331,257.5C 321.589,237.679 311.923,218.013 302,198.5C 282.64,166.715 255.473,144.215 220.5,131C 214.788,128.074 210.288,123.908 207,118.5C 206.194,113.94 208.027,110.774 212.5,109C 217.874,107.16 223.207,105.66 228.5,104.5 Z M 347.5,105.5 C 364.711,104.746 381.711,106.246 398.5,110C 410.267,113.095 419.934,119.429 427.5,129C 436.833,135.667 446.167,142.333 455.5,149C 460.599,151.883 465.933,154.217 471.5,156C 502.013,163.504 531.347,174.17 559.5,188C 575.167,197.256 589,208.756 601,222.5C 616.255,243.526 622.422,266.86 619.5,292.5C 608.614,270.26 593.947,250.76 575.5,234C 569.5,228.667 563.5,223.333 557.5,218C 537.5,205.667 517.5,193.333 497.5,181C 472.941,169.138 448.774,156.638 425,143.5C 421.486,133.82 414.653,127.987 404.5,126C 389.643,123.858 374.977,120.858 360.5,117C 354.064,115.39 349.731,111.557 347.5,105.5 Z M 146.5,112.5 C 154.137,112.542 160.304,115.542 165,121.5C 166.318,124.406 166.652,127.406 166,130.5C 160.065,140.035 153.398,149.035 146,157.5C 139.831,166.5 134.164,175.834 129,185.5C 122.914,199.606 120.914,214.273 123,229.5C 116.569,215.762 113.402,201.262 113.5,186C 113.682,168.704 116.515,151.871 122,135.5C 125.03,127.585 129.863,121.085 136.5,116C 139.85,114.514 143.184,113.347 146.5,112.5 Z M 318.5,124.5 C 324.566,127.102 330.9,128.935 337.5,130C 353.816,131.179 370.15,132.179 386.5,133C 399.025,134.179 409.192,139.679 417,149.5C 423.582,158.996 429.915,168.662 436,178.5C 439.042,181.933 442.542,184.766 446.5,187C 441.782,186.655 437.115,185.655 432.5,184C 424.739,179.786 416.739,176.119 408.5,173C 398.876,171.842 389.209,171.176 379.5,171C 372.942,170.037 366.942,167.704 361.5,164C 357.167,159.667 352.833,155.333 348.5,151C 342.176,148.136 335.509,146.802 328.5,147C 324.734,139.64 321.401,132.14 318.5,124.5 Z M 184.5,125.5 C 215.408,134.12 243.408,148.287 268.5,168C 280.463,179.124 290.63,191.624 299,205.5C 306.161,220.154 312.494,235.154 318,250.5C 329.588,272.009 340.922,293.676 352,315.5C 354.667,322.001 356.833,328.667 358.5,335.5C 352.682,344.09 344.682,349.757 334.5,352.5C 331.812,351.995 329.645,350.662 328,348.5C 322.75,296.354 305.916,248.354 277.5,204.5C 276.416,205.665 275.583,206.998 275,208.5C 273.782,231.582 270.115,254.249 264,276.5C 255.551,257.706 250.385,238.039 248.5,217.5C 247.148,204.687 252.481,196.187 264.5,192C 249.973,180.263 233.307,173.596 214.5,172C 204.833,171.333 195.167,171.333 185.5,172C 156.575,182.258 139.075,202.425 133,232.5C 127.288,202.296 134.621,175.629 155,152.5C 164.13,142.528 173.964,133.528 184.5,125.5 Z M 614.5,153.5 C 636.28,153.927 656.28,160.094 674.5,172C 686.167,180.333 697.833,188.667 709.5,197C 704.126,196.995 698.792,196.328 693.5,195C 674.71,189.403 656.043,183.403 637.5,177C 624.77,172.721 612.104,172.721 599.5,177C 596.705,178.793 594.205,180.96 592,183.5C 589.374,187.956 586.207,191.956 582.5,195.5C 570.328,187.244 557.662,179.744 544.5,173C 541.203,170.705 538.203,168.038 535.5,165C 543.195,164.643 550.862,163.976 558.5,163C 577.186,159.053 595.852,155.886 614.5,153.5 Z M 206.5,179.5 C 216.337,178.975 225.67,180.808 234.5,185C 241.493,192.095 242.327,199.929 237,208.5C 236,209.167 235,209.833 234,210.5C 230.94,207.393 228.106,204.059 225.5,200.5C 223.931,201.714 223.098,203.381 223,205.5C 221.846,206.743 220.512,207.743 219,208.5C 216.821,205.462 214.655,202.462 212.5,199.5C 210.378,202.083 209.045,205.083 208.5,208.5C 207.127,208.657 205.793,208.49 204.5,208C 202.709,205.586 201.043,203.086 199.5,200.5C 196.775,202.99 194.775,205.99 193.5,209.5C 189.633,208.135 186.466,205.802 184,202.5C 179.869,213.455 176.536,213.122 174,201.5C 173.501,196.845 173.334,192.179 173.5,187.5C 184.254,183.394 195.254,180.727 206.5,179.5 Z M 490.5,190.5 C 499.895,190.171 508.229,193.338 515.5,200C 523.946,210.391 531.779,221.225 539,232.5C 543.865,237.7 549.032,242.533 554.5,247C 542.003,247.169 531.837,242.336 524,232.5C 516.58,221.325 508.913,210.325 501,199.5C 497.922,195.915 494.422,192.915 490.5,190.5 Z M 693.5,200.5 C 702.073,202.618 710.073,206.118 717.5,211C 721.381,212.264 725.381,212.431 729.5,211.5C 730.145,214.547 729.145,216.713 726.5,218C 715.887,219.791 705.887,218.124 696.5,213C 693.493,210.834 691.493,208.001 690.5,204.5C 690.787,202.557 691.787,201.223 693.5,200.5 Z M 156.5,204.5 C 163.356,205.069 168.69,208.069 172.5,213.5C 170.696,221.078 168.196,228.411 165,235.5C 156.605,251.621 148.772,267.954 141.5,284.5C 139.653,281.798 138.487,278.798 138,275.5C 134.847,254.386 137.514,234.053 146,214.5C 148.738,210.26 152.238,206.926 156.5,204.5 Z M 412.5,255.5 C 415.943,243.844 413.277,233.677 404.5,225C 396.5,219 388.5,213 380.5,207C 403.146,206.625 425.812,206.291 448.5,206C 455.244,207.04 461.244,209.706 466.5,214C 455.455,214.519 444.455,215.519 433.5,217C 431.051,217.725 428.717,218.725 426.5,220C 423.444,228.041 420.611,236.208 418,244.5C 416.663,248.507 414.83,252.173 412.5,255.5 Z M 595.5,206.5 C 595.56,205.957 595.893,205.624 596.5,205.5C 605.668,211.279 615.668,214.779 626.5,216C 639.612,216.766 652.612,216.432 665.5,215C 658.561,223.05 649.728,226.883 639,226.5C 621.673,225.581 607.173,218.914 595.5,206.5 Z M 719.5,226.5 C 723.846,226.334 728.179,226.501 732.5,227C 742.72,264.677 730.887,293.177 697,312.5C 696.333,311.833 696.333,311.167 697,310.5C 706.46,299.575 712.127,286.909 714,272.5C 714.167,257.822 714.667,243.155 715.5,228.5C 717.026,228.006 718.359,227.339 719.5,226.5 Z M 696.5,230.5 C 697.552,230.351 698.552,230.517 699.5,231C 689.628,242.973 676.794,248.806 661,248.5C 647.028,248.735 635.194,243.902 625.5,234C 632.823,234.993 640.156,236.326 647.5,238C 664.676,240.193 681.01,237.693 696.5,230.5 Z M 173.5,236.5 C 186.793,241.946 197.626,250.612 206,262.5C 221.521,285.897 230.354,311.564 232.5,339.5C 226.167,344 219.833,348.5 213.5,353C 211.975,354.009 210.308,354.509 208.5,354.5C 208.433,336.795 203.6,320.462 194,305.5C 184.913,292.333 176.58,278.667 169,264.5C 166.343,254.47 167.843,245.137 173.5,236.5 Z M 121.5,242.5 C 122.693,242.97 123.36,243.97 123.5,245.5C 125.177,254.971 124.677,264.304 122,273.5C 116.212,284.623 108.878,294.623 100,303.5C 88.8482,315.846 81.3482,330.179 77.5,346.5C 75.4055,326.878 79.9055,308.878 91,292.5C 99.247,281.007 107.247,269.34 115,257.5C 117.729,252.712 119.896,247.712 121.5,242.5 Z M 642.5,255.5 C 656.968,253.599 669.135,257.932 679,268.5C 681.857,273.522 681.524,278.522 678,283.5C 675.664,278.825 672.831,274.492 669.5,270.5C 668.3,269.469 666.966,268.635 665.5,268C 661.452,267.566 657.452,267.566 653.5,268C 650.366,264.502 646.866,261.335 643,258.5C 642.517,257.552 642.351,256.552 642.5,255.5 Z M 624.5,258.5 C 630.572,260.401 635.739,263.735 640,268.5C 645.583,276.664 650.916,284.997 656,293.5C 661.41,300.124 668.244,304.624 676.5,307C 654.861,312.764 639.695,305.264 631,284.5C 627.373,276.197 625.206,267.53 624.5,258.5 Z M 648.5,390.5 C 636.644,388.905 626.311,384.072 617.5,376C 607.753,366.331 599.587,355.498 593,343.5C 581.703,318.905 569.37,294.905 556,271.5C 552.464,268.299 549.297,264.799 546.5,261C 558.059,264.945 569.059,270.278 579.5,277C 590.49,286.79 598.657,298.623 604,312.5C 609.778,329.387 616.111,346.054 623,362.5C 628.925,374.254 637.425,383.588 648.5,390.5 Z M 158.5,268.5 C 165.195,274.384 170.695,281.384 175,289.5C 184.736,309.107 191.069,329.773 194,351.5C 196.172,372.219 198.672,392.885 201.5,413.5C 189.072,414.715 181.238,409.382 178,397.5C 175.422,383.58 174.588,369.58 175.5,355.5C 175.579,338.973 172.746,322.973 167,307.5C 162.614,297.896 158.114,288.396 153.5,279C 154.508,275.152 156.175,271.652 158.5,268.5 Z M 570.5,406.5 C 565.389,405.361 560.889,403.028 557,399.5C 548.473,387.584 544.139,374.25 544,359.5C 543.944,343.099 542.944,326.766 541,310.5C 539.935,304.973 538.269,299.64 536,294.5C 533.329,290.146 530.996,285.813 529,281.5C 540.194,286.365 547.527,294.698 551,306.5C 552.476,311.406 553.476,316.406 554,321.5C 554.767,340.549 556.1,359.549 558,378.5C 559.211,389.248 563.378,398.581 570.5,406.5 Z M 119.5,300.5 C 120.641,303.64 120.808,306.973 120,310.5C 116.551,331.315 109.884,350.982 100,369.5C 92.4537,380.711 82.287,388.544 69.5,393C 67.1788,393.837 64.8454,394.17 62.5,394C 75.24,388.05 83.4066,378.217 87,364.5C 90.9335,350.7 95.2669,337.033 100,323.5C 103.57,313.116 110.07,305.449 119.5,300.5 Z M 425.5,312.5 C 405.528,336.438 386.028,360.771 367,385.5C 352.581,407.34 337.914,429.006 323,450.5C 322.752,430.823 328.085,412.823 339,396.5C 348,384.167 357,371.833 366,359.5C 372.665,350.504 373.998,340.838 370,330.5C 364.023,322.516 358.857,314.016 354.5,305C 354.833,304.5 355.167,304 355.5,303.5C 366.306,319.797 381.306,325.63 400.5,321C 409.17,319.055 417.503,316.221 425.5,312.5 Z M 629.5,304.5 C 653.577,312.916 677.243,322.416 700.5,333C 718.811,342.065 734.311,354.565 747,370.5C 756.925,384.943 761.591,400.943 761,418.5C 754.123,404.283 744.29,392.449 731.5,383C 711.161,370.495 690.494,358.495 669.5,347C 656.451,339.284 645.285,329.45 636,317.5C 633.295,313.423 631.128,309.09 629.5,304.5 Z M 474.5,341.5 C 478.911,341.203 482.911,342.369 486.5,345C 495.973,353.14 504.806,361.973 513,371.5C 514.928,374.851 516.428,378.351 517.5,382C 509.394,380.305 501.394,377.972 493.5,375C 485.382,366.594 478.882,357.094 474,346.5C 473.36,344.735 473.527,343.068 474.5,341.5 Z M 291.5,342.5 C 296.511,342.334 301.511,342.501 306.5,343C 309.798,343.487 312.798,344.653 315.5,346.5C 313.183,348.316 311.016,350.316 309,352.5C 304.291,360.085 299.458,367.585 294.5,375C 292.045,376.631 289.545,376.797 287,375.5C 285.413,370.232 284.08,364.899 283,359.5C 280.51,355.131 277.01,354.297 272.5,357C 271,358.5 269.5,360 268,361.5C 263.412,371.598 259.412,381.931 256,392.5C 254.129,397.081 251.629,401.248 248.5,405C 234.52,409.83 220.187,411.33 205.5,409.5C 201.62,388.968 206.954,371.135 221.5,356C 230.715,348.028 241.382,345.028 253.5,347C 250.459,350.912 247.792,355.079 245.5,359.5C 245.833,359.833 246.167,360.167 246.5,360.5C 260.204,350.939 275.204,344.939 291.5,342.5 Z M 358.5,350.5 C 358.767,354.922 357.6,359.255 355,363.5C 347.909,373.346 340.576,383.013 333,392.5C 329.828,396.841 327.161,401.508 325,406.5C 321.158,420.377 317.825,434.377 315,448.5C 312.984,454.703 309.817,460.203 305.5,465C 304.391,465.638 303.225,466.138 302,466.5C 290.333,464.226 279.167,465.726 268.5,471C 255.833,479 243.167,487 230.5,495C 214.384,505.03 199.884,503.196 187,489.5C 181.807,481.634 180.307,473.134 182.5,464C 184.235,463.349 185.902,463.515 187.5,464.5C 194.635,480.12 205.968,483.953 221.5,476C 233.5,468 245.5,460 257.5,452C 261.048,450.059 264.714,448.393 268.5,447C 275.057,446.076 281.39,444.41 287.5,442C 292.831,437.002 296.997,431.169 300,424.5C 305.726,410.656 311.059,396.656 316,382.5C 318.45,377.716 321.95,373.883 326.5,371C 335.984,366.761 344.984,361.761 353.5,356C 355.373,354.296 357.04,352.463 358.5,350.5 Z M 274.5,364.5 C 276.136,365.749 277.303,367.416 278,369.5C 282.919,387.942 282.585,406.276 277,424.5C 276.215,426.286 275.049,427.786 273.5,429C 268.618,430.555 263.618,430.888 258.5,430C 257.283,428.352 256.45,426.519 256,424.5C 255.333,419.833 255.333,415.167 256,410.5C 263.844,395.794 270.01,380.461 274.5,364.5 Z M 585.5,365.5 C 590.985,367.807 595.818,371.14 600,375.5C 618.649,398.414 629.316,424.747 632,454.5C 635.484,484.323 633.15,513.657 625,542.5C 625.986,531.033 624.986,519.7 622,508.5C 620.669,505.166 618.835,502.166 616.5,499.5C 612.124,501.577 609.124,504.911 607.5,509.5C 601.863,489.225 595.363,469.225 588,449.5C 584.58,438.042 584.747,426.709 588.5,415.5C 591.094,416.592 593.261,418.259 595,420.5C 597.109,425.065 599.942,429.065 603.5,432.5C 603.483,419.233 601.316,406.233 597,393.5C 594.413,383.551 590.579,374.217 585.5,365.5 Z M 444.5,368.5 C 464.284,376.032 484.618,381.865 505.5,386C 521.339,389.276 536.005,395.276 549.5,404C 556.101,408.89 560.601,415.057 563,422.5C 556.338,415.181 548.171,410.347 538.5,408C 521.286,404.606 503.953,401.939 486.5,400C 472.402,398.033 460.235,392.2 450,382.5C 446.948,378.784 444.781,374.618 443.5,370C 444.056,369.617 444.389,369.117 444.5,368.5 Z M 104.5,377.5 C 106.216,387.083 104.383,396.083 99,404.5C 89.8861,412.608 81.8861,421.608 75,431.5C 70.5796,439.932 68.5796,448.932 69,458.5C 61.0193,448.181 59.3526,436.848 64,424.5C 68.43,415.301 74.0966,406.967 81,399.5C 88.812,392.034 96.6453,384.701 104.5,377.5 Z M 705.5,380.5 C 716.596,396.779 729.429,411.779 744,425.5C 755.793,438.741 764.793,453.741 771,470.5C 776.778,492.542 776.444,514.542 770,536.5C 767.607,546.679 764.607,556.679 761,566.5C 760.528,548.595 756.861,531.262 750,514.5C 740.449,493.73 730.115,473.397 719,453.5C 709.972,436.081 704.805,417.581 703.5,398C 703.985,392.132 704.652,386.298 705.5,380.5 Z M 146.5,393.5 C 159.655,401.246 172.322,409.746 184.5,419C 189.907,421.452 195.074,424.286 200,427.5C 202.817,436.73 200.984,444.897 194.5,452C 190.414,454.066 186.747,453.399 183.5,450C 172.576,437.977 162.743,425.144 154,411.5C 150.653,405.812 148.153,399.812 146.5,393.5 Z M 634.5,403.5 C 644.761,407.927 652.261,415.26 657,425.5C 664.787,444.192 671.787,463.192 678,482.5C 681.257,491.076 686.09,498.576 692.5,505C 685.423,504.3 679.089,501.633 673.5,497C 660.76,484.697 652.26,469.864 648,452.5C 643.652,436.104 639.152,419.771 634.5,403.5 Z M 516.5,410.5 C 522.943,410.035 528.109,412.369 532,417.5C 540.372,437.33 541.705,457.664 536,478.5C 537.321,453.631 530.154,431.631 514.5,412.5C 515.243,411.818 515.909,411.151 516.5,410.5 Z M 100.5,412.5 C 101.497,412.47 102.164,412.97 102.5,414C 99.8063,428.383 97.973,442.883 97,457.5C 95.7917,469.68 92.1251,481.013 86,491.5C 83.5325,495.013 80.3659,497.179 76.5,498C 78.051,493.631 79.2176,489.131 80,484.5C 81.0923,473.195 81.7589,461.862 82,450.5C 81.0472,434.107 87.2139,421.441 100.5,412.5 Z M 243.5,414.5 C 244.458,414.953 245.292,415.619 246,416.5C 247.972,421.687 248.639,427.02 248,432.5C 246.2,434.317 244.034,435.484 241.5,436C 230.392,439.556 219.058,441.556 207.5,442C 205.485,436.401 204.485,430.568 204.5,424.5C 208.011,426.085 211.678,426.585 215.5,426C 217.452,423.926 219.285,421.759 221,419.5C 222.667,421.5 224.333,423.5 226,425.5C 228,422.167 230,418.833 232,415.5C 234.057,417.269 235.89,419.269 237.5,421.5C 239.745,419.322 241.745,416.988 243.5,414.5 Z M 426.5,435.5 C 429.216,435.678 431.883,436.178 434.5,437C 421.167,448.333 407.833,459.667 394.5,471C 379.673,484.481 369.84,500.981 365,520.5C 364.752,495.91 372.085,473.91 387,454.5C 397.843,443.161 411.01,436.827 426.5,435.5 Z M 127.5,562.5 C 112.243,554.347 103.076,541.681 100,524.5C 98.7802,517.867 98.4469,511.2 99,504.5C 102.277,481.838 105.444,459.171 108.5,436.5C 110.722,436.178 112.556,436.845 114,438.5C 119.506,450.202 122.006,462.536 121.5,475.5C 120.699,492.012 119.699,508.512 118.5,525C 118.266,538.341 121.266,550.841 127.5,562.5 Z M 248.5,443.5 C 249.873,443.343 251.207,443.51 252.5,444C 243.688,451.577 234.022,457.91 223.5,463C 216.654,465.245 209.654,465.911 202.5,465C 205.141,458.359 209.808,453.692 216.5,451C 227.083,447.519 237.749,445.019 248.5,443.5 Z M 328.5,516.5 C 325.093,514.527 321.426,513.027 317.5,512C 307.771,511.081 305.104,515.081 309.5,524C 305.659,522.84 301.659,521.84 297.5,521C 293.333,520.833 289.167,520.667 285,520.5C 266.201,522.455 247.368,523.622 228.5,524C 216.817,522.816 209.151,516.65 205.5,505.5C 212.5,504.667 219.5,503.833 226.5,503C 236.741,498.88 246.741,494.213 256.5,489C 267.289,483.801 278.622,481.801 290.5,483C 294.38,484.64 298.38,485.307 302.5,485C 310.136,476.363 318.136,468.03 326.5,460C 332.079,455.373 338.412,452.706 345.5,452C 337.323,460.184 332.156,470.018 330,481.5C 327.382,493.08 326.882,504.747 328.5,516.5 Z M 714.5,480.5 C 722.404,500.361 730.237,520.361 738,540.5C 748.534,576.734 747.868,612.734 736,648.5C 731.407,661.359 724.074,672.359 714,681.5C 725.236,652.134 728.236,621.801 723,590.5C 719.566,569.227 716.566,547.894 714,526.5C 713.267,511.149 713.434,495.815 714.5,480.5 Z M 517.5,581.5 C 531.143,574.023 541.643,563.356 549,549.5C 558.631,528.237 569.297,507.571 581,487.5C 582.323,484.941 584.157,484.275 586.5,485.5C 590.09,500.77 594.59,515.77 600,530.5C 605.885,556.53 602.218,581.196 589,604.5C 579.523,619.981 567.856,633.648 554,645.5C 558.998,635.853 564.332,626.186 570,616.5C 579.961,596.076 582.961,574.743 579,552.5C 578.443,550.385 577.609,548.385 576.5,546.5C 574.926,545.369 573.259,545.202 571.5,546C 568.833,547.333 566.167,548.667 563.5,550C 554.797,558.371 545.797,566.371 536.5,574C 530.803,578.184 524.47,580.684 517.5,581.5 Z M 130.5,502.5 C 149.249,530.186 160.916,560.686 165.5,594C 164.818,603.074 162.985,611.908 160,620.5C 160.277,609.279 158.944,598.279 156,587.5C 149.192,573.216 141.858,559.216 134,545.5C 127.13,531.591 125.963,517.258 130.5,502.5 Z M 274.5,528.5 C 285.441,530.597 292.941,536.931 297,547.5C 302.699,560.852 303.699,574.518 300,588.5C 299.252,590.332 298.252,591.999 297,593.5C 296.949,568.064 286.782,547.73 266.5,532.5C 268.84,530.321 271.507,528.987 274.5,528.5 Z M 181.5,751.5 C 178.243,750.538 175.243,749.038 172.5,747C 162.223,737.729 153.057,727.562 145,716.5C 139.818,706.287 135.818,695.621 133,684.5C 129.138,666.053 124.805,647.719 120,629.5C 117.784,621.518 114.784,613.851 111,606.5C 110.282,605.549 109.449,605.383 108.5,606C 105.675,611.263 104.342,616.93 104.5,623C 106.052,642.259 109.719,661.092 115.5,679.5C 109.579,670.608 105.079,660.942 102,650.5C 90.3621,620.399 86.6955,589.399 91,557.5C 92.066,549.902 94.066,542.568 97,535.5C 100.139,551.446 105.805,566.446 114,580.5C 122.916,593.998 131.583,607.664 140,621.5C 141.389,653.837 147.723,685.17 159,715.5C 164.773,728.732 172.273,740.732 181.5,751.5 Z M 329.5,561.5 C 325.33,558.856 320.997,556.356 316.5,554C 314.302,553.627 312.135,553.127 310,552.5C 307.566,553.322 305.066,553.656 302.5,553.5C 302.326,548.144 300.659,543.311 297.5,539C 297.905,538.055 298.572,537.388 299.5,537C 305.091,536.085 310.091,537.419 314.5,541C 321.352,546.562 326.352,553.395 329.5,561.5 Z M 272.5,548.5 C 274.074,548.937 275.241,549.937 276,551.5C 278.039,555.745 280.206,559.912 282.5,564C 273.801,572.269 264.134,573.936 253.5,569C 257.974,566.027 262.307,562.86 266.5,559.5C 268.781,555.935 270.781,552.268 272.5,548.5 Z M 218.5,649.5 C 189.207,631.777 173.874,605.61 172.5,571C 172.833,568.5 173.167,566 173.5,563.5C 179.807,566.64 184.64,571.307 188,577.5C 190.607,582.38 192.94,587.38 195,592.5C 199,605.167 203,617.833 207,630.5C 209.867,637.508 213.701,643.842 218.5,649.5 Z M 547.5,581.5 C 548.5,581.5 549.5,581.5 550.5,581.5C 550.7,593.601 548.533,605.267 544,616.5C 535.19,634.12 525.857,651.454 516,668.5C 510.933,679.367 507.267,690.7 505,702.5C 504.262,694.125 504.595,685.792 506,677.5C 510.221,659.615 515.221,641.948 521,624.5C 521.667,620.833 521.667,617.167 521,613.5C 520.519,611.522 519.353,610.189 517.5,609.5C 514.309,610.175 511.309,611.342 508.5,613C 490.491,626.853 478.324,644.687 472,666.5C 475.501,630.324 493.668,604.491 526.5,589C 533.571,586.368 540.571,583.868 547.5,581.5 Z M 694.5,706.5 C 685.164,682.66 679.83,657.827 678.5,632C 678.37,618.647 681.536,606.147 688,594.5C 692.134,587.188 698.301,583.688 706.5,584C 708.487,585.319 709.654,587.152 710,589.5C 712.308,604.361 711.308,619.027 707,633.5C 702.59,648.73 698.59,664.064 695,679.5C 694.5,688.494 694.334,697.494 694.5,706.5 Z M 438.5,601.5 C 432.559,619.824 422.559,635.991 408.5,650C 405.691,651.741 402.691,652.908 399.5,653.5C 404.296,629.865 417.296,612.532 438.5,601.5 Z M 225.5,622.5 C 229.546,622.15 233.38,622.817 237,624.5C 247.93,643.571 248.263,662.904 238,682.5C 234.208,688.296 229.208,692.629 223,695.5C 225.046,688.719 227.713,682.052 231,675.5C 232.959,667.175 232.959,658.842 231,650.5C 228.251,641.423 225.418,632.423 222.5,623.5C 223.791,623.737 224.791,623.404 225.5,622.5 Z M 471.5,623.5 C 472.239,623.369 472.906,623.536 473.5,624C 459.098,646.971 446.931,671.137 437,696.5C 435.333,704.167 433.667,711.833 432,719.5C 422.319,677.888 435.485,645.888 471.5,623.5 Z M 427.5,646.5 C 426.779,655.832 423.945,664.498 419,672.5C 406.086,689.418 392.419,705.752 378,721.5C 373.271,728.961 369.605,736.961 367,745.5C 368.864,701.07 389.031,668.07 427.5,646.5 Z M 255.5,652.5 C 260.711,654.361 265.211,657.361 269,661.5C 274.604,671.708 279.937,682.041 285,692.5C 295.725,707.56 306.058,722.894 316,738.5C 322.994,750.486 328.327,763.152 332,776.5C 333.22,781.476 333.887,786.476 334,791.5C 327.358,776.208 318.358,762.541 307,750.5C 296,739.5 285,728.5 274,717.5C 258.364,698.637 252.198,676.971 255.5,652.5 Z M 657.5,652.5 C 659.124,652.36 660.29,653.027 661,654.5C 662.45,672.825 663.784,691.158 665,709.5C 666.326,722.125 668.659,734.458 672,746.5C 657.292,733.094 648.292,716.428 645,696.5C 641.726,679.581 645.892,664.914 657.5,652.5 Z M 552.5,818.5 C 566.252,791.996 582.752,767.33 602,744.5C 616.525,726.097 624.025,705.097 624.5,681.5C 638.363,696.944 643.197,714.944 639,735.5C 634.589,752.155 625.755,765.989 612.5,777C 592.602,791.079 572.602,804.912 552.5,818.5 Z M 362.5,793.5 C 378.609,773.012 387.109,749.679 388,723.5C 388.36,721.392 389.027,719.392 390,717.5C 397.038,710.793 404.372,704.46 412,698.5C 410.673,717.155 405.673,734.821 397,751.5C 390.492,761.85 383.492,771.85 376,781.5C 371.906,786.102 367.406,790.102 362.5,793.5 Z M 259.5,824.5 C 229.557,805.043 207.724,778.709 194,745.5C 188.959,735.243 186.125,724.576 185.5,713.5C 197.66,719.492 207.494,728.159 215,739.5C 218.585,745.002 221.919,750.669 225,756.5C 233.394,774.954 242.06,793.288 251,811.5C 254.082,815.734 256.916,820.067 259.5,824.5 Z M 563.5,750.5 C 566.854,769.747 562.354,787.08 550,802.5C 543.136,809.698 535.97,816.532 528.5,823C 506.34,838.58 484.007,853.914 461.5,869C 455.922,873.907 451.089,879.407 447,885.5C 448.145,878.517 450.478,871.85 454,865.5C 463.024,851.473 473.858,838.973 486.5,828C 508.486,811.691 528.986,793.524 548,773.5C 553.682,766.121 558.849,758.455 563.5,750.5 Z M 498.5,755.5 C 500.141,768.957 497.308,781.623 490,793.5C 487,797.833 484,802.167 481,806.5C 461.508,825.984 443.508,846.65 427,868.5C 416.338,883.825 408.338,900.492 403,918.5C 401.551,889.63 408.551,862.963 424,838.5C 430.605,828.295 437.938,818.628 446,809.5C 463.34,791.327 480.84,773.327 498.5,755.5 Z M 324.5,863.5 C 297.515,850.681 277.682,830.681 265,803.5C 261.945,797.069 260.778,790.402 261.5,783.5C 272.793,787.301 281.96,793.967 289,803.5C 292,807.833 295,812.167 298,816.5C 306.339,832.518 315.172,848.185 324.5,863.5 Z M 318.5,829.5 C 338.757,838.59 353.591,853.257 363,873.5C 372.594,892.666 373.927,912.333 367,932.5C 365.368,914.259 359.035,897.925 348,883.5C 336.494,871.166 327.494,857.166 321,841.5C 319.846,837.553 319.013,833.553 318.5,829.5 Z M 399.5,864.5 C 400.765,865.514 401.431,867.014 401.5,869C 401.163,872.523 400.663,876.023 400,879.5C 393.305,897.914 387.638,916.581 383,935.5C 380.279,920.204 379.946,904.871 382,889.5C 383.933,878.256 389.767,869.922 399.5,864.5 Z"/></g>
</svg>
